HIERARCHY
ROOT Root
{
  OFFSET 0.0 0.0 0.0
  CHANNELS 6 Xposition Yposition Zposition Zrotation Yrotation Xrotation
  JOINT Hips
  {
    OFFSET 0.0 100.0 0.0
    CHANNELS 6 Xposition Yposition Zposition Zrotation Yrotation Xrotation
    JOINT Spine1
    {
      OFFSET -0.013727 5.003763 -0.053727
      CHANNELS 3 Zrotation Yrotation Xrotation
      JOINT Spine2
      {
        OFFSET -0.0 7.125301 -0.029825
        CHANNELS 3 Zrotation Yrotation Xrotation
        JOINT Chest
        {
          OFFSET -1e-06 7.550063 -0.815971
          CHANNELS 3 Zrotation Yrotation Xrotation
          JOINT Neck1
          {
            OFFSET -0.181677 26.311295 -0.553348
            CHANNELS 3 Zrotation Yrotation Xrotation
            JOINT Neck2
            {
              OFFSET -3e-06 7.709397 2.302585
              CHANNELS 3 Zrotation Yrotation Xrotation
              JOINT Head
              {
                OFFSET -5e-06 6.128916 1.953709
                CHANNELS 3 Zrotation Yrotation Xrotation
                JOINT HeadEnd
                {
                  OFFSET 0.003598 16.065403 -1.835379
                  CHANNELS 3 Zrotation Yrotation Xrotation
                }
                JOINT Jaw
                {
                  OFFSET 0.002637 0.475592 3.094941
                  CHANNELS 3 Zrotation Yrotation Xrotation
                }
                JOINT LeftEye
                {
                  OFFSET 3.206381 5.380205 7.586883
                  CHANNELS 3 Zrotation Yrotation Xrotation
                }
                JOINT RightEye
                {
                  OFFSET -3.22244 5.361869 7.558234
                  CHANNELS 3 Zrotation Yrotation Xrotation
                }
              }
            }
          }
          JOINT LeftShoulder
          {
            OFFSET 1.621652 23.237164 5.113413
            CHANNELS 3 Zrotation Yrotation Xrotation
            JOINT LeftArm
            {
              OFFSET 14.919846 2e-06 -5.502326
              CHANNELS 3 Zrotation Yrotation Xrotation
              JOINT LeftForeArm
              {
                OFFSET 28.739307 0.0 -0.002588
                CHANNELS 3 Zrotation Yrotation Xrotation
                JOINT LeftHand
                {
                  OFFSET 27.093981 -1e-06 0.002609
                  CHANNELS 3 Zrotation Yrotation Xrotation
                  JOINT LeftHandThumb1
                  {
                    OFFSET 2.276482 -1.392045 3.191413
                    CHANNELS 3 Zrotation Yrotation Xrotation
                    JOINT LeftHandThumb2
                    {
                      OFFSET 4.012836 -1.828127 1.641654
                      CHANNELS 3 Zrotation Yrotation Xrotation
                      JOINT LeftHandThumb3
                      {
                        OFFSET 2.798515 0.0 -3e-06
                        CHANNELS 3 Zrotation Yrotation Xrotation
                        JOINT LeftHandThumbEnd
                        {
                          OFFSET 3.180793 -4e-06 4e-06
                          CHANNELS 3 Zrotation Yrotation Xrotation
                        }
                      }
                    }
                  }
                  JOINT LeftHandIndex1
                  {
                    OFFSET 3.247555 -0.531998 2.296169
                    CHANNELS 3 Zrotation Yrotation Xrotation
                    JOINT LeftHandIndex2
                    {
                      OFFSET 6.364578 0.01206 0.1786
                      CHANNELS 3 Zrotation Yrotation Xrotation
                      JOINT LeftHandIndex3
                      {
                        OFFSET 3.662364 0.0 0.0
                        CHANNELS 3 Zrotation Yrotation Xrotation
                        JOINT LeftHandIndex4
                        {
                          OFFSET 2.329242 4e-06 4e-06
                          CHANNELS 3 Zrotation Yrotation Xrotation
                          JOINT LeftHandIndexEnd
                          {
                            OFFSET 2.759615 -0.180537 -0.113024
                            CHANNELS 3 Zrotation Yrotation Xrotation
                          }
                        }
                      }
                    }
                  }
                  JOINT LeftHandMiddle1
                  {
                    OFFSET 3.163495 0.240981 1.000332
                    CHANNELS 3 Zrotation Yrotation Xrotation
                    JOINT LeftHandMiddle2
                    {
                      OFFSET 6.19078 -0.259278 -1.002548
                      CHANNELS 3 Zrotation Yrotation Xrotation
                      JOINT LeftHandMiddle3
                      {
                        OFFSET 4.35652 -4e-06 -1e-06
                        CHANNELS 3 Zrotation Yrotation Xrotation
                        JOINT LeftHandMiddle4
                        {
                          OFFSET 2.996877 -8e-06 0.0
                          CHANNELS 3 Zrotation Yrotation Xrotation
                          JOINT LeftHandMiddleEnd
                          {
                            OFFSET 2.304287 -0.294569 -0.031741
                            CHANNELS 3 Zrotation Yrotation Xrotation
                          }
                        }
                      }
                    }
                  }
                  JOINT LeftHandRing1
                  {
                    OFFSET 2.882643 -0.053652 -0.322543
                    CHANNELS 3 Zrotation Yrotation Xrotation
                    JOINT LeftHandRing2
                    {
                      OFFSET 5.854541 -0.486202 -1.373841
                      CHANNELS 3 Zrotation Yrotation Xrotation
                      JOINT LeftHandRing3
                      {
                        OFFSET 4.350578 0.0 3e-06
                        CHANNELS 3 Zrotation Yrotation Xrotation
                        JOINT LeftHandRing4
                        {
                          OFFSET 2.651321 7e-06 2e-06
                          CHANNELS 3 Zrotation Yrotation Xrotation
                          JOINT LeftHandRingEnd
                          {
                            OFFSET 1.936105 0.077687 -7.1e-05
                            CHANNELS 3 Zrotation Yrotation Xrotation
                          }
                        }
                      }
                    }
                  }
                  JOINT LeftHandPinky1
                  {
                    OFFSET 2.8655 -0.310005 -1.600378
                    CHANNELS 3 Zrotation Yrotation Xrotation
                    JOINT LeftHandPinky2
                    {
                      OFFSET 5.087849 -1.331141 -1.77123
                      CHANNELS 3 Zrotation Yrotation Xrotation
                      JOINT LeftHandPinky3
                      {
                        OFFSET 3.070974 4e-06 0.0
                        CHANNELS 3 Zrotation Yrotation Xrotation
                        JOINT LeftHandPinky4
                        {
                          OFFSET 1.549672 0.0 1e-06
                          CHANNELS 3 Zrotation Yrotation Xrotation
                          JOINT LeftHandPinkyEnd
                          {
                            OFFSET 1.944893 -0.157802 0.057219
                            CHANNELS 3 Zrotation Yrotation Xrotation
                          }
                        }
                      }
                    }
                  }
                }
              }
            }
          }
          JOINT RightShoulder
          {
            OFFSET -1.380118 23.180309 5.214158
            CHANNELS 3 Zrotation Yrotation Xrotation
            JOINT RightArm
            {
              OFFSET -15.037196 1.2e-05 -5.545604
              CHANNELS 3 Zrotation Yrotation Xrotation
              JOINT RightForeArm
              {
                OFFSET -28.736639 2e-06 -0.002597
                CHANNELS 3 Zrotation Yrotation Xrotation
                JOINT RightHand
                {
                  OFFSET -27.133619 -0.0 0.002613
                  CHANNELS 3 Zrotation Yrotation Xrotation
                  JOINT RightHandThumb1
                  {
                    OFFSET -2.274032 -1.383988 3.163127
                    CHANNELS 3 Zrotation Yrotation Xrotation
                    JOINT RightHandThumb2
                    {
                      OFFSET -4.011429 -1.827466 1.640914
                      CHANNELS 3 Zrotation Yrotation Xrotation
                      JOINT RightHandThumb3
                      {
                        OFFSET -2.794935 -4e-06 -3e-06
                        CHANNELS 3 Zrotation Yrotation Xrotation
                        JOINT RightHandThumbEnd
                        {
                          OFFSET -3.183852 4e-06 1e-06
                          CHANNELS 3 Zrotation Yrotation Xrotation
                        }
                      }
                    }
                  }
                  JOINT RightHandIndex1
                  {
                    OFFSET -3.253266 -0.520057 2.282866
                    CHANNELS 3 Zrotation Yrotation Xrotation
                    JOINT RightHandIndex2
                    {
                      OFFSET -6.341917 0.012471 0.178266
                      CHANNELS 3 Zrotation Yrotation Xrotation
                      JOINT RightHandIndex3
                      {
                        OFFSET -3.654871 -8e-06 -0.0
                        CHANNELS 3 Zrotation Yrotation Xrotation
                        JOINT RightHandIndex4
                        {
                          OFFSET -2.327586 0.0 1e-06
                          CHANNELS 3 Zrotation Yrotation Xrotation
                          JOINT RightHandIndexEnd
                          {
                            OFFSET -2.76179 -0.180656 -0.113078
                            CHANNELS 3 Zrotation Yrotation Xrotation
                          }
                        }
                      }
                    }
                  }
                  JOINT RightHandMiddle1
                  {
                    OFFSET -3.168106 0.246593 1.00103
                    CHANNELS 3 Zrotation Yrotation Xrotation
                    JOINT RightHandMiddle2
                    {
                      OFFSET -6.180828 -0.258836 -1.000895
                      CHANNELS 3 Zrotation Yrotation Xrotation
                      JOINT RightHandMiddle3
                      {
                        OFFSET -4.348901 0.0 -0.0
                        CHANNELS 3 Zrotation Yrotation Xrotation
                        JOINT RightHandMiddle4
                        {
                          OFFSET -3.00024 -4e-06 -2e-06
                          CHANNELS 3 Zrotation Yrotation Xrotation
                          JOINT RightHandMiddleEnd
                          {
                            OFFSET -2.30252 -0.29437 -0.031706
                            CHANNELS 3 Zrotation Yrotation Xrotation
                          }
                        }
                      }
                    }
                  }
                  JOINT RightHandRing1
                  {
                    OFFSET -2.88569 -0.067952 -0.308858
                    CHANNELS 3 Zrotation Yrotation Xrotation
                    JOINT RightHandRing2
                    {
                      OFFSET -5.854198 -0.48613 -1.373731
                      CHANNELS 3 Zrotation Yrotation Xrotation
                      JOINT RightHandRing3
                      {
                        OFFSET -4.33881 -4e-06 -0.0
                        CHANNELS 3 Zrotation Yrotation Xrotation
                        JOINT RightHandRing4
                        {
                          OFFSET -2.654903 -4e-06 4e-06
                          CHANNELS 3 Zrotation Yrotation Xrotation
                          JOINT RightHandRingEnd
                          {
                            OFFSET -1.933568 0.077527 -5.2e-05
                            CHANNELS 3 Zrotation Yrotation Xrotation
                          }
                        }
                      }
                    }
                  }
                  JOINT RightHandPinky1
                  {
                    OFFSET -2.866425 -0.342796 -1.584145
                    CHANNELS 3 Zrotation Yrotation Xrotation
                    JOINT RightHandPinky2
                    {
                      OFFSET -5.091371 -1.332055 -1.772385
                      CHANNELS 3 Zrotation Yrotation Xrotation
                      JOINT RightHandPinky3
                      {
                        OFFSET -3.062664 -4e-06 1e-06
                        CHANNELS 3 Zrotation Yrotation Xrotation
                        JOINT RightHandPinky4
                        {
                          OFFSET -1.546529 4e-06 -2e-06
                          CHANNELS 3 Zrotation Yrotation Xrotation
                          JOINT RightHandPinkyEnd
                          {
                            OFFSET -1.945119 -0.157718 0.057211
                            CHANNELS 3 Zrotation Yrotation Xrotation
                          }
                        }
                      }
                    }
                  }
                }
              }
            }
          }
        }
      }
    }
    JOINT LeftLeg
    {
      OFFSET 10.043214 -8.434526 2.595655
      CHANNELS 3 Zrotation Yrotation Xrotation
      JOINT LeftShin
      {
        OFFSET -1e-06 -43.221752 -0.802913
        CHANNELS 3 Zrotation Yrotation Xrotation
        JOINT LeftFoot
        {
          OFFSET 1e-06 -42.155094 -3.481523
          CHANNELS 3 Zrotation Yrotation Xrotation
          JOINT LeftToeBase
          {
            OFFSET 0.0 -5.059472 13.231529
            CHANNELS 3 Zrotation Yrotation Xrotation
            JOINT LeftToeEnd
            {
              OFFSET -0.009607 -1.647619 6.513017
              CHANNELS 3 Zrotation Yrotation Xrotation
            }
          }
        }
      }
    }
    JOINT RightLeg
    {
      OFFSET -10.047278 -8.29526 2.620317
      CHANNELS 3 Zrotation Yrotation Xrotation
      JOINT RightShin
      {
        OFFSET 1e-06 -43.362206 -0.805556
        CHANNELS 3 Zrotation Yrotation Xrotation
        JOINT RightFoot
        {
          OFFSET 2e-06 -42.117393 -3.478398
          CHANNELS 3 Zrotation Yrotation Xrotation
          JOINT RightToeBase
          {
            OFFSET -0.0 -5.079609 13.284196
            CHANNELS 3 Zrotation Yrotation Xrotation
            JOINT RightToeEnd
            {
              OFFSET 0.009532 -1.634378 6.460591
              CHANNELS 3 Zrotation Yrotation Xrotation
            }
          }
        }
      }
    }
  }
}
MOTION
Frames: 4
Frame Time: 0.03333333333333333
0.0 0.0 0.0 0.0 -0.0 0.0 -0.777283 93.666542 -0.861365 -0.616692 0.864135 3.231641 2.014719 1.291267 -3.224519 -0.015884 2.998182 -5.666728 -0.559662 2.270467 10.832696 -9.524129 8.174547 12.398683 -0.332626 2.018782 -3.914847 2.444605 0.529002 -11.280966 7.7e-05 -2.4e-05 6e-06 0.004174 0.185768 -0.000542 0.711139 -3.58071 -10.74649 -0.709057 3.966431 -10.82233 -17.278112 -0.253713 10.549377 -54.782509 12.421638 4.386702 0.450014 -32.223812 0.252747 4.077267 13.498408 -20.182735 -5.882106 9.861284 0.70259 -10.936873 -0.360575 7.156207 0.0 8.774824 -1e-06 -16.45631 17.547167 5.860157 -1.844032 2.498504 -2.507276 -10.163603 4.678945 4.621109 -20.976027 -2e-06 6e-06 -21.226288 2.451699 -3.593998 0.0 -6e-06 1e-06 -1.362681 2.240798 -0.746323 -21.334917 0.58491 3.008325 -13.821215 -2e-06 3e-06 -23.887173 -0.249077 -0.83948 -60.07782 2.108205 -1.057964 -0.294022 1.679688 0.833256 -14.218207 0.093215 1.300583 -34.212048 -0.287562 0.967172 -20.033211 0.964538 1.212844 0.0 -0.0 0.0 -3.440388 0.788233 0.501656 -15.928185 -3.167309 2.999709 -6.338826 -1e-06 2e-06 -18.123444 3.648184 -4.905668 -4e-06 0.0 -2e-06 11.36272 16.721344 15.666214 53.055099 4.579422 30.666201 -0.411792 29.253653 -0.224752 2.689645 -3.538828 -19.612368 2.243543 -5.25504 -3.180162 14.282902 -0.826596 6.952507 -1e-06 -12.690614 1e-06 16.270515 -17.334209 2.385055 1.665667 -1.955922 -2.878298 4.727802 -4.170591 4.993927 11.020533 3e-06 -2e-06 12.109059 -3.735718 -2.866786 -0.0 -0.0 -1e-06 1.291986 -1.92855 -1.49809 14.800139 0.567468 3.865611 14.242582 -1.341737 -6.660662 19.631985 0.143927 -0.648245 49.779423 -0.673167 -6.061947 0.353029 -1.511151 -0.031941 20.222805 3.684313 2.316632 18.787287 5e-06 1e-06 10.751637 -0.47987 1.397908 1e-06 1e-06 -1e-06 3.273809 0.305947 -0.580112 21.486828 11.830384 2.266134 8.162933 1e-06 -0.0 18.399096 -3.798988 -4.940579 2e-06 0.0 -1e-06 18.076973 26.234703 -16.83979 -0.1831 -0.413211 35.698673 -11.098384 3.221508 -15.506756 1.624392 -1.730832 -2.297252 0.0 -0.0 2e-06 -21.463718 3.230995 -7.194004 -0.043819 0.262333 16.44685 22.640438 3.497919 -9.218863 -1.458219 1.067201 -0.713428 0.0 -0.0 -1e-06 
0.0 0.0 0.0 0.0 -0.0 0.0 1.744165 93.267151 -0.862737 0.029086 1.330797 3.664623 1.340277 1.337121 -3.249001 0.105842 2.914334 -5.748463 -0.741282 2.053085 10.618121 -9.275382 7.806969 12.300356 -0.223047 1.772758 -3.957319 2.414313 0.295706 -11.323022 7.7e-05 -2.3e-05 6e-06 0.003172 0.138619 -0.009444 0.714224 -3.61676 -10.724094 -0.714503 3.906516 -10.794652 -17.698206 -0.704168 10.873514 -54.463223 11.626681 4.402568 -0.244168 -32.368568 0.495486 4.278875 13.736827 -21.018496 -5.882108 9.861292 0.70259 -10.936877 -0.360575 7.156209 1e-06 8.774831 -0.0 -16.30784 17.589304 5.933272 -1.844033 2.498505 -2.507278 -10.163604 4.678948 4.621109 -20.976036 -4e-06 2e-06 -21.226301 2.451697 -3.594002 1e-06 -6e-06 -0.0 -1.362682 2.240799 -0.746324 -21.334925 0.584909 3.008324 -13.821221 -3e-06 1e-06 -23.887184 -0.24908 -0.839483 -59.95919 2.080137 -1.113618 -0.294024 1.679688 0.833256 -14.218217 0.093214 1.300579 -34.212074 -0.287566 0.96717 -20.03323 0.964536 1.212843 1e-06 0.0 -0.0 -3.44039 0.788234 0.501656 -15.928194 -3.167312 2.999707 -6.338829 -1e-06 1e-06 -18.123457 3.648184 -4.905673 -5e-06 0.0 -2e-06 11.391136 16.037064 15.480491 52.19632 3.818378 31.462721 -0.737026 29.195955 -0.314469 3.019285 -2.90736 -21.20084 2.243543 -5.255038 -3.180158 14.282893 -0.826597 6.952503 -1e-06 -12.690609 -1e-06 16.137409 -17.081982 2.343791 1.665667 -1.955922 -2.878301 4.727799 -4.170589 4.993924 11.020529 1e-06 -2e-06 12.109056 -3.735718 -2.866785 1e-06 -0.0 0.0 1.291986 -1.92855 -1.49809 14.800131 0.567467 3.865608 14.242576 -1.341737 -6.660661 19.631969 0.143926 -0.648248 49.306808 -0.6569 -6.04357 0.353029 -1.511151 -0.031938 20.222792 3.684308 2.316628 18.787273 4e-06 -4e-06 10.751629 -0.479869 1.397902 1e-06 1e-06 -1e-06 3.273808 0.305947 -0.58011 21.486816 11.830378 2.26613 8.16293 1e-06 -2e-06 18.39909 -3.798986 -4.940581 2e-06 0.0 -0.0 14.967971 26.223492 -18.932884 -0.191602 -0.379162 37.69096 -12.031654 2.236416 -16.035543 1.662939 -1.742928 -1.632061 -0.0 -1e-06 2e-06 -25.032982 3.740829 -6.884567 0.023844 0.562961 14.735395 25.035946 0.620914 -3.624854 -1.475967 1.080206 -2.518792 -0.0 -0.0 -1e-06 
0.0 0.0 0.0 0.0 -0.0 0.0 7.353528 93.187782 -1.206107 0.840177 2.838329 4.035169 0.598915 1.179372 -3.195948 0.224975 2.580955 -5.823997 -0.799353 1.571549 10.674474 -8.801408 7.559862 12.49194 -0.212326 1.06965 -3.987987 2.398837 -0.188476 -11.351983 7.7e-05 -2.4e-05 6e-06 0.014209 0.134391 0.013248 0.719065 -3.612708 -10.690905 -0.699079 3.891324 -10.744322 -18.536131 -1.480341 11.249532 -53.548424 9.913548 5.407284 -0.427997 -33.462391 0.475638 4.592268 13.783345 -22.548191 -5.882113 9.861299 0.702593 -10.936885 -0.360576 7.156212 1e-06 8.774837 -0.0 -16.548023 17.764759 5.767276 -1.844034 2.498507 -2.507279 -10.163611 4.678952 4.621112 -20.976048 -4e-06 4e-06 -21.226313 2.451699 -3.594005 2e-06 -6e-06 0.0 -1.362684 2.240801 -0.746322 -21.33494 0.584909 3.008324 -13.821229 -3e-06 2e-06 -23.887201 -0.24908 -0.839483 -60.103188 2.106788 -1.688232 -0.294026 1.67969 0.833257 -14.218225 0.093214 1.300581 -34.212093 -0.287566 0.967171 -20.033241 0.964536 1.212845 1e-06 -1e-06 -1e-06 -3.440392 0.788234 0.501656 -15.928206 -3.167315 2.999709 -6.338834 -1e-06 1e-06 -18.12347 3.648188 -4.905675 -4e-06 1e-06 -1e-06 11.336017 15.041016 15.519606 50.994186 3.01223 31.077604 -0.904586 29.81756 -0.377472 3.280854 -2.847486 -23.142933 2.243545 -5.255043 -3.180161 14.282907 -0.826597 6.95251 -1e-06 -12.69062 -1e-06 16.232 -16.94314 2.346312 1.665668 -1.955924 -2.878303 4.727805 -4.170593 4.993929 11.02054 2e-06 -1e-06 12.109068 -3.735721 -2.866787 0.0 0.0 -0.0 1.291987 -1.928551 -1.498091 14.800146 0.567468 3.865614 14.242587 -1.341739 -6.660666 19.63199 0.143926 -0.648246 49.387753 -0.488183 -5.978488 0.353029 -1.511152 -0.031938 20.222818 3.684314 2.316633 18.787298 3e-06 -0.0 10.751643 -0.479871 1.397907 1e-06 -0.0 -1e-06 3.273811 0.305947 -0.580112 21.486843 11.830391 2.266135 8.162937 1e-06 -1e-06 18.399107 -3.79899 -4.940583 2e-06 -0.0 -1e-06 10.270593 24.087593 -21.28529 -0.132367 -0.290678 40.096664 -10.847142 1.815024 -17.628033 1.649431 -1.707454 -0.127333 -0.0 -1e-06 2e-06 -28.856789 4.673178 -7.963636 0.116556 1.04275 16.159992 25.346313 -3.158081 4.107048 -1.552974 1.132056 -7.139987 -0.0 -0.0 -1e-06 
0.0 0.0 0.0 0.0 -0.0 0.0 12.531765 93.751778 -1.214296 1.110915 4.822406 3.778557 0.200933 1.040559 -2.921844 0.323638 2.217409 -5.794333 -0.635314 0.916181 11.0579 -8.130375 7.306053 13.085924 -0.390389 0.505552 -3.933109 2.345281 -0.402265 -11.25988 7.7e-05 -2.4e-05 6e-06 0.013801 0.117168 0.027522 0.703252 -3.613249 -10.621962 -0.68488 3.857259 -10.6863 -18.930796 -2.347818 11.432801 -52.770123 7.724913 5.808647 -0.4205 -35.795937 0.367853 5.194194 13.488103 -24.227816 -5.882109 9.861288 0.702591 -10.936874 -0.360575 7.156207 1e-06 8.774828 -0.0 -16.770964 17.891983 5.600404 -1.844033 2.498505 -2.507278 -10.163603 4.678946 4.621109 -20.97603 -4e-06 3e-06 -21.226292 2.451697 -3.594 1e-06 -6e-06 1e-06 -1.362682 2.240798 -0.746323 -21.334923 0.584909 3.008324 -13.821218 -3e-06 2e-06 -23.887182 -0.249079 -0.839483 -60.419758 2.114069 -2.108287 -0.294025 1.679688 0.833257 -14.218214 0.093214 1.30058 -34.212063 -0.287565 0.967171 -20.033218 0.964536 1.212844 2e-06 -1e-06 0.0 -3.440391 0.788234 0.501655 -15.928192 -3.167311 2.999708 -6.338829 -1e-06 1e-06 -18.123453 3.648183 -4.905672 -4e-06 0.0 -0.0 11.060803 14.325931 15.708904 50.477394 2.485863 29.453251 -0.596731 29.786844 -0.240599 3.857656 -2.966526 -24.853012 2.243543 -5.25504 -3.18016 14.282899 -0.826596 6.952507 -2e-06 -12.690612 1e-06 16.491903 -17.209833 2.276439 1.665667 -1.955922 -2.878299 4.727802 -4.17059 4.993928 11.020534 2e-06 -1e-06 12.109059 -3.735719 -2.866788 -0.0 1e-06 -1e-06 1.291987 -1.928551 -1.498091 14.800138 0.567467 3.865609 14.242582 -1.341738 -6.660665 19.631979 0.143925 -0.648246 49.593666 -0.525129 -6.191399 0.35303 -1.511152 -0.031939 20.222803 3.684309 2.316631 18.787287 2e-06 -0.0 10.751636 -0.479869 1.397906 0.0 1e-06 -0.0 3.273808 0.305947 -0.580111 21.486826 11.830381 2.266132 8.16293 1e-06 -2e-06 18.399094 -3.798988 -4.940579 2e-06 -0.0 -1e-06 6.253953 20.978758 -21.645555 -0.067169 -0.238652 40.766647 -8.024023 2.151943 -19.795542 1.648539 -1.755298 0.666323 -0.0 -1e-06 2e-06 -30.845009 7.492924 -10.135038 0.09007 1.463717 20.572306 19.484585 -7.689341 12.466173 -1.677922 1.149581 -9.503394 -0.0 -0.0 -2e-06 
